<svg preserveAspectRatio="none" overflow="visible" style="display: block;" width="16" height="16" viewBox="0 0 16 16" fill="none" xmlns="http://www.w3.org/2000/svg">
<g id="Left icon">
<path id="Outlined" d="M8 1.33301C11.682 1.33301 14.667 4.318 14.667 8C14.667 11.682 11.682 14.667 8 14.667C4.318 14.667 1.33301 11.682 1.33301 8C1.33301 4.318 4.318 1.33301 8 1.33301ZM8 10C7.82319 10 7.65334 10.0703 7.52832 10.1953C7.4034 10.3203 7.33301 10.4903 7.33301 10.667C7.33309 10.8435 7.40358 11.0128 7.52832 11.1377C7.65334 11.2627 7.82319 11.333 8 11.333C8.17681 11.333 8.34666 11.2627 8.47168 11.1377C8.59642 11.0128 8.66691 10.8435 8.66699 10.667C8.66699 10.4903 8.5966 10.3203 8.47168 10.1953C8.34666 10.0703 8.17681 10 8 10ZM8 4C7.83674 4.00002 7.67963 4.06048 7.55762 4.16895C7.43562 4.27743 7.35702 4.42674 7.33789 4.58887L7.33301 4.66699V8.66699C7.33328 8.83677 7.39812 9.00055 7.51465 9.12402C7.63129 9.24757 7.79132 9.32109 7.96094 9.33105C8.13054 9.34101 8.29744 9.28579 8.42773 9.17676C8.55783 9.0678 8.64196 8.91361 8.66211 8.74512L8.66699 8.66699V4.66699C8.66699 4.49026 8.5966 4.32032 8.47168 4.19531C8.34666 4.07029 8.17681 4 8 4Z" fill="#CA5B00"/>
</g>
</svg>
