<svg preserveAspectRatio="none" overflow="visible" style="display: block;" width="20" height="20" viewBox="0 0 20 20" fill="none" xmlns="http://www.w3.org/2000/svg">
<g id="Icon">
<path id="Outlined" d="M5.83301 10.833C6.71706 10.833 7.56531 11.1844 8.19043 11.8096C8.81555 12.4347 9.16699 13.2829 9.16699 14.167C9.16691 15.0509 8.81537 15.8984 8.19043 16.5234C7.56531 17.1486 6.71706 17.5 5.83301 17.5C4.94907 17.4999 4.10161 17.1485 3.47656 16.5234C2.85152 15.8984 2.50009 15.0509 2.5 14.167C2.5 13.2829 2.85144 12.4347 3.47656 11.8096C4.10159 11.1846 4.94915 10.8331 5.83301 10.833ZM14.167 10.833C15.0509 10.8331 15.8984 11.1846 16.5234 11.8096C17.1486 12.4347 17.5 13.2829 17.5 14.167C17.4999 15.0509 17.1485 15.8984 16.5234 16.5234C15.8984 17.1485 15.0509 17.4999 14.167 17.5C13.2829 17.5 12.4347 17.1486 11.8096 16.5234C11.1846 15.8984 10.8331 15.0509 10.833 14.167C10.833 13.2829 11.1844 12.4347 11.8096 11.8096C12.4347 11.1844 13.2829 10.833 14.167 10.833ZM5.83301 12.5C5.39117 12.5001 4.96774 12.6759 4.65527 12.9883C4.34271 13.3008 4.16699 13.725 4.16699 14.167C4.16708 14.6089 4.34279 15.0322 4.65527 15.3447C4.96776 15.6572 5.3911 15.8329 5.83301 15.833C6.27504 15.833 6.69916 15.6573 7.01172 15.3447C7.3241 15.0323 7.49991 14.6088 7.5 14.167C7.5 13.725 7.32428 13.3008 7.01172 12.9883C6.69916 12.6757 6.27504 12.5 5.83301 12.5ZM14.167 12.5C13.725 12.5 13.3008 12.6757 12.9883 12.9883C12.6757 13.3008 12.5 13.725 12.5 14.167C12.5001 14.6088 12.6759 15.0323 12.9883 15.3447C13.3008 15.6573 13.725 15.833 14.167 15.833C14.6089 15.8329 15.0322 15.6572 15.3447 15.3447C15.6572 15.0322 15.8329 14.6089 15.833 14.167C15.833 13.725 15.6573 13.3008 15.3447 12.9883C15.0323 12.6759 14.6088 12.5001 14.167 12.5ZM5.83301 2.5C6.71706 2.5 7.56531 2.85144 8.19043 3.47656C8.81537 4.10159 9.16691 4.94915 9.16699 5.83301C9.16699 6.71706 8.81555 7.56531 8.19043 8.19043C7.56531 8.81555 6.71706 9.16699 5.83301 9.16699C4.94915 9.16691 4.10159 8.81537 3.47656 8.19043C2.85144 7.56531 2.5 6.71706 2.5 5.83301C2.50009 4.94907 2.85152 4.10161 3.47656 3.47656C4.10161 2.85152 4.94907 2.50009 5.83301 2.5ZM14.167 2.5C15.0509 2.50009 15.8984 2.85152 16.5234 3.47656C17.1485 4.10161 17.4999 4.94907 17.5 5.83301C17.5 6.71706 17.1486 7.56531 16.5234 8.19043C15.8984 8.81537 15.0509 9.16691 14.167 9.16699C13.2829 9.16699 12.4347 8.81555 11.8096 8.19043C11.1844 7.56531 10.833 6.71706 10.833 5.83301C10.8331 4.94915 11.1846 4.10159 11.8096 3.47656C12.4347 2.85144 13.2829 2.5 14.167 2.5ZM5.83301 4.16699C5.3911 4.16708 4.96776 4.34279 4.65527 4.65527C4.34279 4.96776 4.16708 5.3911 4.16699 5.83301C4.16699 6.27504 4.34271 6.69916 4.65527 7.01172C4.96774 7.3241 5.39117 7.49991 5.83301 7.5C6.27504 7.5 6.69916 7.32428 7.01172 7.01172C7.32428 6.69916 7.5 6.27504 7.5 5.83301C7.49991 5.39117 7.3241 4.96774 7.01172 4.65527C6.69916 4.34271 6.27504 4.16699 5.83301 4.16699ZM14.167 4.16699C13.725 4.16699 13.3008 4.34271 12.9883 4.65527C12.6759 4.96774 12.5001 5.39117 12.5 5.83301C12.5 6.27504 12.6757 6.69916 12.9883 7.01172C13.3008 7.32428 13.725 7.5 14.167 7.5C14.6088 7.49991 15.0323 7.3241 15.3447 7.01172C15.6573 6.69916 15.833 6.27504 15.833 5.83301C15.8329 5.3911 15.6572 4.96776 15.3447 4.65527C15.0322 4.34279 14.6089 4.16708 14.167 4.16699Z" fill="#010101" fill-opacity="0.79"/>
</g>
</svg>
